<svg width="155" height="26" viewBox="0 0 155 26" fill="none" xmlns="http://www.w3.org/2000/svg">
<path d="M15.136 5.164H5.92V11.428H13.948V15.856H5.92V25H0.34V0.735999H15.136V5.164ZM27.4069 17.512H25.7149C24.8269 17.512 24.1429 17.704 23.6629 18.088C23.1829 18.472 22.9429 18.964 22.9429 19.564C22.9429 20.788 23.6509 21.4 25.0669 21.4C25.8109 21.4 26.3869 21.172 26.7949 20.716C27.2029 20.26 27.4069 19.636 27.4069 18.844V17.512ZM18.8749 12.364V7.648C20.3149 6.832 22.3909 6.424 25.1029 6.424C27.6949 6.424 29.6269 6.988 30.8989 8.116C32.1709 9.22 32.8069 10.948 32.8069 13.3V25H27.6589V22.768C26.8909 24.328 25.3789 25.108 23.1229 25.108C21.3469 25.108 19.9549 24.604 18.9469 23.596C17.9629 22.588 17.4709 21.328 17.4709 19.816C17.4709 18.064 18.1069 16.708 19.3789 15.748C20.6749 14.764 22.5829 14.272 25.1029 14.272H27.4069V13.012C27.4069 11.476 26.3869 10.708 24.3469 10.708C22.3789 10.708 20.5549 11.26 18.8749 12.364ZM41.3614 15.928C41.4574 17.536 41.9374 18.784 42.8014 19.672C43.6654 20.56 44.8054 21.004 46.2214 21.004C47.7334 21.004 49.1854 20.584 50.5774 19.744V24.136C49.1614 24.904 47.4574 25.288 45.4654 25.288C42.7294 25.288 40.4734 24.424 38.6974 22.696C36.9214 20.944 36.0334 18.688 36.0334 15.928C36.0814 13.192 36.9694 10.936 38.6974 9.16C40.4254 7.36 42.7894 6.46 45.7894 6.46C47.6374 6.46 49.2334 6.808 50.5774 7.504V12.004C49.3054 11.212 47.8894 10.816 46.3294 10.816C44.8654 10.816 43.6774 11.26 42.7654 12.148C41.8534 13.012 41.3854 14.272 41.3614 15.928ZM64.3564 14.2V13.768C64.1884 11.632 63.2524 10.564 61.5484 10.564C60.7084 10.564 59.9644 10.876 59.3164 11.5C58.6684 12.1 58.2364 13 58.0204 14.2H64.3564ZM68.1364 19.564V23.956C66.8884 24.772 64.9804 25.18 62.4124 25.18C59.4124 25.18 57.0724 24.316 55.3924 22.588C53.7364 20.836 52.9084 18.592 52.9084 15.856C52.9084 12.952 53.7124 10.684 55.3204 9.052C56.9524 7.396 58.9564 6.568 61.3324 6.568C63.7804 6.568 65.7124 7.288 67.1284 8.728C68.5444 10.144 69.2524 12.268 69.2524 15.1C69.2524 15.652 69.1564 16.6 68.9644 17.944H58.2364C58.5964 18.952 59.2204 19.732 60.1084 20.284C60.9964 20.836 62.0644 21.112 63.3124 21.112C65.1604 21.112 66.7684 20.596 68.1364 19.564ZM78.2598 6.748V9.592C79.2678 7.576 80.9838 6.568 83.4078 6.568C85.9758 6.568 87.6798 7.72 88.5198 10.024C88.9278 8.944 89.6118 8.104 90.5718 7.504C91.5318 6.88 92.6598 6.568 93.9558 6.568C95.7558 6.568 97.1718 7.144 98.2038 8.296C99.2598 9.424 99.7878 11.092 99.7878 13.3V25H94.5318V14.164C94.5318 13.132 94.3278 12.316 93.9198 11.716C93.5118 11.116 92.9238 10.816 92.1558 10.816C91.3398 10.816 90.6078 11.152 89.9598 11.824C89.3358 12.472 89.0237 13.648 89.0237 15.352V25H83.7678V14.164C83.7678 13.132 83.5638 12.316 83.1558 11.716C82.7478 11.116 82.1598 10.816 81.3918 10.816C80.5758 10.816 79.8438 11.152 79.1958 11.824C78.5718 12.472 78.2598 13.648 78.2598 15.352V25H73.0038V6.748H78.2598ZM114.489 14.2V13.768C114.321 11.632 113.385 10.564 111.681 10.564C110.841 10.564 110.097 10.876 109.449 11.5C108.801 12.1 108.369 13 108.153 14.2H114.489ZM118.269 19.564V23.956C117.021 24.772 115.113 25.18 112.545 25.18C109.545 25.18 107.205 24.316 105.525 22.588C103.869 20.836 103.041 18.592 103.041 15.856C103.041 12.952 103.845 10.684 105.453 9.052C107.085 7.396 109.089 6.568 111.465 6.568C113.913 6.568 115.845 7.288 117.261 8.728C118.677 10.144 119.385 12.268 119.385 15.1C119.385 15.652 119.289 16.6 119.097 17.944H108.369C108.729 18.952 109.353 19.732 110.241 20.284C111.129 20.836 112.197 21.112 113.445 21.112C115.293 21.112 116.901 20.596 118.269 19.564ZM128.393 6.748V9.844C128.849 8.836 129.545 8.044 130.481 7.468C131.441 6.868 132.581 6.568 133.901 6.568C135.773 6.568 137.237 7.132 138.293 8.26C139.349 9.364 139.877 10.996 139.877 13.156V25H134.621V14.128C134.621 13.048 134.369 12.232 133.865 11.68C133.361 11.104 132.653 10.816 131.741 10.816C130.781 10.816 129.977 11.2 129.329 11.968C128.705 12.712 128.393 13.84 128.393 15.352V25H123.137V6.748H128.393ZM150.103 10.6V18.988C150.103 19.636 150.283 20.128 150.643 20.464C151.027 20.8 151.519 20.968 152.119 20.968C153.079 20.968 153.931 20.728 154.675 20.248V24.604C153.787 24.988 152.587 25.18 151.075 25.18C146.923 25.18 144.847 23.104 144.847 18.952V10.6H142.219V6.748H144.847V2.428H150.103V6.748H154.351V10.6H150.103Z" fill="#4E69D0"/>
</svg>
