<svg width="185" height="52" viewBox="0 0 185 52" fill="none" xmlns="http://www.w3.org/2000/svg">
<path d="M17.136 18.164H7.92V24.428H15.948V28.856H7.92V38H2.34V13.736H17.136V18.164ZM29.4069 30.512H27.7149C26.8269 30.512 26.1429 30.704 25.6629 31.088C25.1829 31.472 24.9429 31.964 24.9429 32.564C24.9429 33.788 25.6509 34.4 27.0669 34.4C27.8109 34.4 28.3869 34.172 28.7949 33.716C29.2029 33.26 29.4069 32.636 29.4069 31.844V30.512ZM20.8749 25.364V20.648C22.3149 19.832 24.3909 19.424 27.1029 19.424C29.6949 19.424 31.6269 19.988 32.8989 21.116C34.1709 22.22 34.8069 23.948 34.8069 26.3V38H29.6589V35.768C28.8909 37.328 27.3789 38.108 25.1229 38.108C23.3469 38.108 21.9549 37.604 20.9469 36.596C19.9629 35.588 19.4709 34.328 19.4709 32.816C19.4709 31.064 20.1069 29.708 21.3789 28.748C22.6749 27.764 24.5829 27.272 27.1029 27.272H29.4069V26.012C29.4069 24.476 28.3869 23.708 26.3469 23.708C24.3789 23.708 22.5549 24.26 20.8749 25.364ZM43.3614 28.928C43.4574 30.536 43.9374 31.784 44.8014 32.672C45.6654 33.56 46.8054 34.004 48.2214 34.004C49.7334 34.004 51.1854 33.584 52.5774 32.744V37.136C51.1614 37.904 49.4574 38.288 47.4654 38.288C44.7294 38.288 42.4734 37.424 40.6974 35.696C38.9214 33.944 38.0334 31.688 38.0334 28.928C38.0814 26.192 38.9694 23.936 40.6974 22.16C42.4254 20.36 44.7894 19.46 47.7894 19.46C49.6374 19.46 51.2334 19.808 52.5774 20.504V25.004C51.3054 24.212 49.8894 23.816 48.3294 23.816C46.8654 23.816 45.6774 24.26 44.7654 25.148C43.8534 26.012 43.3854 27.272 43.3614 28.928ZM66.3564 27.2V26.768C66.1884 24.632 65.2524 23.564 63.5484 23.564C62.7084 23.564 61.9644 23.876 61.3164 24.5C60.6684 25.1 60.2364 26 60.0204 27.2H66.3564ZM70.1364 32.564V36.956C68.8884 37.772 66.9804 38.18 64.4124 38.18C61.4124 38.18 59.0724 37.316 57.3924 35.588C55.7364 33.836 54.9084 31.592 54.9084 28.856C54.9084 25.952 55.7124 23.684 57.3204 22.052C58.9524 20.396 60.9564 19.568 63.3324 19.568C65.7804 19.568 67.7124 20.288 69.1284 21.728C70.5444 23.144 71.2524 25.268 71.2524 28.1C71.2524 28.652 71.1564 29.6 70.9644 30.944H60.2364C60.5964 31.952 61.2204 32.732 62.1084 33.284C62.9964 33.836 64.0644 34.112 65.3124 34.112C67.1604 34.112 68.7684 33.596 70.1364 32.564ZM80.2598 19.748V22.592C81.2678 20.576 82.9838 19.568 85.4078 19.568C87.9758 19.568 89.6798 20.72 90.5198 23.024C90.9278 21.944 91.6118 21.104 92.5718 20.504C93.5318 19.88 94.6598 19.568 95.9558 19.568C97.7558 19.568 99.1718 20.144 100.204 21.296C101.26 22.424 101.788 24.092 101.788 26.3V38H96.5318V27.164C96.5318 26.132 96.3278 25.316 95.9198 24.716C95.5118 24.116 94.9238 23.816 94.1558 23.816C93.3398 23.816 92.6078 24.152 91.9598 24.824C91.3358 25.472 91.0237 26.648 91.0237 28.352V38H85.7678V27.164C85.7678 26.132 85.5638 25.316 85.1558 24.716C84.7478 24.116 84.1598 23.816 83.3918 23.816C82.5758 23.816 81.8438 24.152 81.1958 24.824C80.5718 25.472 80.2598 26.648 80.2598 28.352V38H75.0038V19.748H80.2598ZM116.489 27.2V26.768C116.321 24.632 115.385 23.564 113.681 23.564C112.841 23.564 112.097 23.876 111.449 24.5C110.801 25.1 110.369 26 110.153 27.2H116.489ZM120.269 32.564V36.956C119.021 37.772 117.113 38.18 114.545 38.18C111.545 38.18 109.205 37.316 107.525 35.588C105.869 33.836 105.041 31.592 105.041 28.856C105.041 25.952 105.845 23.684 107.453 22.052C109.085 20.396 111.089 19.568 113.465 19.568C115.913 19.568 117.845 20.288 119.261 21.728C120.677 23.144 121.385 25.268 121.385 28.1C121.385 28.652 121.289 29.6 121.097 30.944H110.369C110.729 31.952 111.353 32.732 112.241 33.284C113.129 33.836 114.197 34.112 115.445 34.112C117.293 34.112 118.901 33.596 120.269 32.564ZM130.393 19.748V22.844C130.849 21.836 131.545 21.044 132.481 20.468C133.441 19.868 134.581 19.568 135.901 19.568C137.773 19.568 139.237 20.132 140.293 21.26C141.349 22.364 141.877 23.996 141.877 26.156V38H136.621V27.128C136.621 26.048 136.369 25.232 135.865 24.68C135.361 24.104 134.653 23.816 133.741 23.816C132.781 23.816 131.977 24.2 131.329 24.968C130.705 25.712 130.393 26.84 130.393 28.352V38H125.137V19.748H130.393ZM152.103 23.6V31.988C152.103 32.636 152.283 33.128 152.643 33.464C153.027 33.8 153.519 33.968 154.119 33.968C155.079 33.968 155.931 33.728 156.675 33.248V37.604C155.787 37.988 154.587 38.18 153.075 38.18C148.923 38.18 146.847 36.104 146.847 31.952V23.6H144.219V19.748H146.847V15.428H152.103V19.748H156.351V23.6H152.103Z" fill="white"/>
<circle cx="164" cy="34" r="4" fill="#F02E4E"/>
</svg>
