<svg width="674" height="675" viewBox="0 0 674 675" fill="none" xmlns="http://www.w3.org/2000/svg">
<g clip-path="url(#clip0_615_581)">
<path d="M734.029 306.102C732.266 301.563 734.785 299.293 735.793 295.259C736.801 291.224 733.526 278.616 733.526 278.616C733.526 278.616 722.946 234.991 719.671 226.417C718.285 222.789 715.275 220.293 712.264 218.617C712.06 217.504 711.765 216.787 711.358 216.583C708.44 215.121 701.171 211.948 696.327 211.071C695.421 209.512 694.347 208.058 693.123 206.735C693.974 205.1 694.368 203.267 694.265 201.427C693.956 196.669 690.357 192.406 690.825 187.662C691.18 184.063 693.808 181.108 694.822 177.637C695.247 176.079 695.348 174.449 695.118 172.85C694.887 171.251 694.331 169.716 693.484 168.341C694.229 169.135 694.974 169.928 695.719 170.722C696.733 169.201 697.221 167.39 697.108 165.565C696.996 163.74 696.289 162.003 695.096 160.618C692.736 158.009 688.791 157.031 686.96 154.026C685.079 150.938 686.089 146.743 684.31 143.595C679.952 135.884 668.797 141.35 662.115 138.659C659.369 137.553 657.282 136.335 654.192 136.423C651.565 136.574 648.968 137.059 646.464 137.868C642.872 138.908 639.745 141.151 637.607 144.223C637.818 143.982 638.05 143.761 638.299 143.561C639.918 142.29 642.758 142.396 643.613 144.269C643.817 144.74 643.903 145.254 643.862 145.765C643.722 148.023 641.752 149.709 639.794 150.839C637.836 151.969 635.633 152.914 634.355 154.78C632.247 157.859 633.487 161.991 633.488 165.725C633.47 168.097 632.922 170.436 631.882 172.568C630.843 174.7 629.338 176.572 627.481 178.045L634.589 175.136C631.195 181.083 628.967 187.623 628.024 194.407L637.635 186.459C634.076 192.13 631.912 198.566 631.323 205.238L639.037 197.325C639.389 197.943 639.565 198.645 639.547 199.356L638.742 202.462C638.458 203.079 638.143 203.68 637.798 204.265C636.557 206.399 635.273 209.025 636.434 211.204L636.44 211.201C635.218 215.317 633.374 219.436 629.273 221.437C633.822 221.914 638.57 219.637 640.624 216.013C640.959 216.665 641.364 217.279 641.831 217.843C641.963 218.009 642.093 218.173 642.224 218.338L641.09 219.094L638.052 221.122C638.052 221.122 618.151 225.156 619.411 232.721C619.463 233.033 619.525 233.404 619.595 233.821L613.869 243.564L605.556 271.807C605.556 271.807 601.273 280.885 602.029 284.668C602.785 288.45 602.029 289.963 602.029 296.772C602.029 303.58 598.754 306.354 602.029 311.901C605.304 317.449 615.128 333.588 615.128 333.588L617.286 335.208C617.181 336.181 617.218 337.164 617.395 338.127C619.411 348.213 638.304 444.793 638.304 444.793C638.304 444.793 628.731 521.2 648.128 525.991C650.561 526.592 652.95 527.137 655.271 527.622L658.205 546.921L656.441 571.381C656.441 571.381 643.09 601.641 667.525 603.406C691.961 605.171 680.877 577.181 680.877 577.181C682.166 574.791 682.694 572.062 682.388 569.363C682.139 567.119 680.041 555.437 677.985 544.202C687.258 543.089 685.523 533.238 684.287 528.906C684.822 528.594 685.222 528.094 685.411 527.504C685.69 526.498 685.04 522.541 683.861 516.996C682.9 511.483 681.259 502.559 680.139 496.514L686.167 497.496L711.61 348.213C711.61 348.213 711.777 345.837 711.701 342.361C715.179 340.56 718.767 338.978 722.442 337.622C730.755 334.344 734.029 322.24 736.8 317.197C739.572 312.154 735.793 310.641 734.029 306.102ZM643.694 211.053C644.517 210.485 645.482 210.158 646.481 210.107C646.265 211.28 644.25 211.623 642.56 212.237C642.87 211.783 643.253 211.383 643.694 211.053V211.053ZM630.999 286.181C633.04 289.537 629.344 298.632 626.014 305.85C624.106 304.204 622.115 304.723 624.449 300.05C626.041 297.088 626.985 293.822 627.22 290.468C627.22 289.891 627.515 285.654 629.997 283.894C630.259 284.686 630.594 285.452 630.999 286.181V286.181ZM623.353 315.149C624.508 314.679 626.257 313.956 628.619 313.152C627.488 314.639 626.196 316.41 624.896 318.343C624.405 317.971 624.01 317.487 623.742 316.932C623.473 316.377 623.34 315.766 623.353 315.149V315.149ZM705.06 318.458C703.528 316.829 702.291 315.372 701.272 314.068C703.172 314.569 705.107 315.108 707.075 315.684C708.056 315.831 709.057 315.764 710.01 315.488C710.098 317.232 710.098 319.719 710.098 319.719L707.339 321.631C706.71 320.485 705.945 319.42 705.06 318.458V318.458ZM712.878 309.713C712.848 309.738 712.816 309.768 712.786 309.795C712.651 308.798 712.425 307.815 712.113 306.858C710.463 301.646 709.58 292.399 709.111 284.507L713.877 300.554C713.877 300.554 714.129 308.623 712.878 309.713V309.713Z" fill="#D0CDE1"/>
<path d="M615.025 243.433C615.025 243.433 589.18 198.967 588.373 194.117C587.565 189.266 574.643 180.373 574.643 180.373C570.228 175.953 562.984 174.555 555.361 174.628C558.232 172.25 547.982 170.652 547.184 169.055C546.376 167.438 543.953 167.438 540.722 165.012C537.492 162.587 529.429 164.608 529.428 164.608C528.215 162.055 527.371 159.342 526.922 156.551C530.364 152.475 532.249 147.308 532.242 141.971C532.242 141.913 532.238 141.856 532.238 141.798C532.444 142.119 532.649 142.441 532.855 142.773C534.368 133.701 537.038 126.161 531.948 117.885C528.34 112.02 522.692 107.698 516.092 105.751L511.244 109.633L513.129 105.105C511.544 104.863 509.939 104.77 508.337 104.828L503.975 110.442L505.781 105.02C501.996 105.491 498.349 106.742 495.071 108.693C491.793 110.645 488.955 113.256 486.735 116.36C481.183 124.374 481.555 135.512 487.015 143.588C487.033 143.532 487.048 143.476 487.066 143.42C487.307 147.198 488.491 150.855 490.51 154.056C492.528 157.258 495.317 159.901 498.62 161.744L499.992 172.728C498.757 173.875 497.174 174.575 495.495 174.714C493.072 174.714 490.649 181.182 490.649 181.182C490.649 181.182 489.276 181.875 487.796 185.15C483.983 187.748 472.354 195.91 468.039 201.613C465.487 202.87 462.745 205.667 463.19 211.903C463.997 223.221 463.19 275.771 463.19 275.771C463.19 275.771 455.921 320.236 458.344 323.47C460.767 326.704 457.536 337.214 457.536 337.214L459.959 337.753V340.447C459.959 340.447 452.672 374.264 463.997 372.786C482.573 370.36 468.843 342.873 468.843 342.873V339.729L472.074 340.447C472.074 340.447 473.689 329.129 476.92 328.321C478.043 328.039 479.362 325.017 480.605 321.198C481.329 327.157 481.765 330.746 481.765 330.746L486.819 329.622L488.226 334.788C488.574 334.983 488.937 335.148 489.312 335.28L488.226 341.256C488.226 341.256 487.419 347.723 488.226 351.766C488.634 353.804 503.625 397.379 518.387 440.076L518.109 450.397C518.109 450.397 510.84 458.482 512.455 464.141C514.071 469.8 508.417 516.691 508.417 516.691L503.571 540.136L504.791 540.512L503.671 544.62C502.707 545.107 501.85 545.781 501.149 546.604C494.688 553.88 486.611 574.9 486.611 574.9C486.611 574.9 472.074 596.728 494.688 595.919C517.301 595.111 518.917 587.026 518.917 587.026C518.917 587.026 522.147 566.007 522.147 565.198C522.147 564.39 520.532 556.079 520.532 556.079L519.905 555.387L520.343 545.302L524.57 546.604C524.57 546.604 528.608 525.584 531.839 523.158C532.968 522.311 535.972 512.868 539.401 500.74C542.907 510.844 546.302 545.782 547.403 548.953C547.013 549.487 546.669 550.053 546.376 550.646C542.746 557.62 538.7 564.369 534.262 570.857C534.262 570.857 508.417 586.218 534.262 590.26C534.262 590.26 548.799 591.069 556.068 586.218C563.336 581.367 582.719 574.091 582.719 572.474C582.719 570.857 577.874 547.089 573.028 549.676L569.782 542.202L573.028 540.944L552.581 449.072C553.064 447.114 553.42 445.126 553.645 443.121C553.645 438.888 564.102 356.451 566.763 335.541C578.475 338.863 589.181 314.577 589.181 314.577L591.836 309.793L595.642 312.151C595.642 312.151 598.872 304.067 603.718 303.258C608.564 302.45 617.448 259.602 617.448 253.943C617.374 250.309 616.549 246.731 615.025 243.433V243.433ZM577.396 306.774C576.601 305.511 575.679 304.333 574.643 303.258C576.755 297.753 578.376 292.072 579.489 286.281C581.104 277.388 577.066 248.283 577.066 248.283L576.995 246.307C580.959 251.516 585.95 258.46 585.95 260.41C585.95 261.351 586.169 262.28 586.589 263.122C587.01 263.964 587.621 264.696 588.373 265.261L583.527 282.238C583.527 282.238 580.297 290.323 579.489 294.365C579.005 296.762 578.735 299.197 578.681 301.641L579.826 302.351L577.396 306.774Z" fill="#D0CDE1"/>
<path d="M245.287 258.396L249.597 257.426L231.829 207.302L193.466 193.154C193.466 193.154 193.319 193.317 193.048 193.598C189.776 190.428 188.387 185.828 187.807 182.207C190.892 180.959 193.664 179.046 195.925 176.602C198.186 174.159 199.88 171.246 200.887 168.071C201.893 164.897 202.188 161.539 201.749 158.238C201.31 154.936 200.148 151.773 198.346 148.972C201.508 148.213 202.636 145.342 203.697 141.919C203.04 141.725 202.37 141.579 201.692 141.482C202.189 140.366 202.687 139.25 203.184 138.134C202.31 138.056 201.436 137.977 200.563 137.899C200.786 136.855 201.009 135.812 201.233 134.769C200.119 135.539 199.004 136.309 197.89 137.079C198.269 135.984 198.363 134.81 198.164 133.669C197.965 132.527 197.479 131.455 196.752 130.553C195.272 128.764 193.343 127.401 191.162 126.607C186.896 124.928 182.251 124.457 177.736 125.247C173.221 126.037 169.011 128.057 165.567 131.085L165.326 130.143C158.507 135.39 154.046 143.13 152.919 151.664C151.85 160.101 155.898 168.691 161.161 175.367C161.117 175.076 161.069 174.785 161.021 174.495C161.248 174.809 161.483 175.116 161.726 175.418L162.372 200.025L160.752 201.416C160.75 201.417 133.569 213.726 132.509 228.429L132.506 228.44C130.875 235.597 130.067 272.786 130.067 272.786H132.304L130.067 287.339L115.53 343.931C115.53 343.931 96.9542 368.184 113.107 373.035C123.144 376.049 126.008 364.392 126.738 355.132C127.32 357.427 129.059 358.979 132.49 359.291C132.76 359.316 133.048 359.336 133.327 359.359C125.69 379.116 130.875 443.371 130.875 443.371C126.837 451.455 174.487 507.239 174.487 507.239L177.356 505.707L177.977 506.95C176.38 507.103 175.295 507.239 175.295 507.239V532.301C175.295 532.301 168.026 557.363 177.717 562.214C180.225 563.469 182.841 562.556 185.341 560.517C184.863 568.251 184.178 579.793 184.178 582.425C184.178 586.467 194.678 593.743 194.678 593.743C194.678 593.743 197.101 602.636 216.484 602.636C235.867 602.636 221.33 579.191 221.33 579.191L210.83 555.746C210.83 555.746 210.045 556.131 207.667 554.193L208.519 544.818L213.253 545.236L219.714 450.647C219.714 450.647 225.368 366.567 226.175 353.632C226.365 349.485 226.267 345.33 225.883 341.196L249.597 292.189L245.287 258.396ZM227.791 289.764L225.368 298.216V279.524L227.791 289.764ZM126.963 349.718C126.983 346.755 126.837 344.739 126.837 344.739L142.626 313.128L142.182 322.911C142.182 322.911 129.536 338.922 126.963 349.718ZM163.988 440.945L179.333 386.779L188.217 452.264L187.58 476.071C186.498 473.883 185.629 471.596 184.986 469.241C182.563 459.54 163.988 440.945 163.988 440.945Z" fill="#D0CDE1"/>
<path d="M382.544 569.616C374.977 566.497 360.287 559.813 358.507 556.249C356.726 552.684 347.824 525.058 347.824 525.058L345.531 525.225C345.235 512.675 343.973 464.035 342.037 458.22C342.037 458.22 351.385 381.134 332.689 350.389L329.321 336.766C330.426 331.305 330.284 318.66 329.573 316.524C328.683 313.851 339.811 305.385 336.695 300.038C333.58 294.691 325.122 276.422 325.122 276.422C325.122 276.422 326.012 264.837 313.994 254.143C313.994 254.143 310.481 234.239 294.655 233.942C292.515 230.204 289.521 224.261 290.402 221.615C291.345 218.782 294.953 209.949 296.99 205.005C298.072 204.515 299.112 203.936 300.098 203.274C312.685 197.628 321.558 184.057 321.558 168.204C321.558 151.233 311.393 136.87 297.386 132.054C298.009 130.408 298.265 128.645 298.133 126.889C298.001 125.133 297.486 123.428 296.624 121.893C295.761 120.359 294.573 119.032 293.142 118.008C291.712 116.984 290.074 116.287 288.344 115.965C286.615 115.644 284.836 115.707 283.134 116.15C281.431 116.593 279.847 117.404 278.492 118.527C277.137 119.65 276.045 121.057 275.294 122.649C274.542 124.241 274.148 125.978 274.141 127.739C273.371 125.911 273.064 123.921 273.25 121.946C273.435 119.971 274.106 118.072 275.203 116.42C276.299 114.767 277.788 113.413 279.535 112.476C281.282 111.54 283.234 111.051 285.216 111.054C285.996 111.055 286.774 111.132 287.539 111.283C284.9 110.027 281.894 109.777 279.084 110.581C276.274 111.384 273.854 113.185 272.276 115.647C270.698 118.109 270.071 121.063 270.512 123.954C270.954 126.846 272.433 129.477 274.674 131.355C274.812 131.795 274.976 132.227 275.165 132.648C261.984 137.972 252.581 151.881 252.581 168.204C252.581 183.344 260.674 196.404 272.365 202.466C272.303 207.392 271.083 215.695 264.297 220.755C260.792 219.152 255.928 217.392 252.807 218.19C251.193 216.931 248.758 216.515 245.444 219.833C238.767 226.516 232.98 243.894 232.98 254.588C232.98 265.282 234.315 327.218 234.315 327.218C234.315 327.218 227.193 329.892 232.09 333.902C233.101 334.745 234.37 335.217 235.686 335.24L240.547 371.331C240.547 371.331 237.431 406.087 249.45 406.532C250.392 406.584 251.329 406.354 252.14 405.871L243.218 446.189C243.218 446.189 222.742 459.557 206.717 485.846C198.464 499.387 194.349 507.717 192.293 512.621L189.357 510.799L179.119 530.405C179.119 530.405 156.418 544.218 161.314 554.466C166.21 564.715 170.662 567.388 170.662 567.388L173.778 566.052L179.564 576.746C179.564 576.746 194.699 598.579 219.181 587.44C220.33 585.894 220.95 584.019 220.95 582.093C220.95 580.166 220.33 578.291 219.181 576.746C215.175 570.953 204.937 558.477 204.937 558.477L211.614 524.612L210.232 523.755L252.566 472.479C252.566 472.479 265.029 464.904 269.481 458.22C273.932 451.536 301.53 382.471 301.53 382.471L317.11 454.656C317.11 454.656 316.219 480.945 320.225 497.877C322.409 507.375 323.833 517.032 324.484 526.757L323.341 526.84L326.012 546.892C326.012 546.892 314.439 575.409 322.451 577.637C328.152 579.111 333.955 580.154 339.811 580.756L340.702 577.637C340.702 577.637 374.977 596.351 387.44 582.538C387.44 582.538 390.111 572.735 382.544 569.616ZM260.578 350.834C261.913 352.171 261.468 358.409 261.468 358.409L258.797 375.787L256.13 387.84C255.761 382.146 255.016 376.482 253.901 370.886L252.669 337.583C252.911 337.736 253.177 337.847 253.456 337.912C254.346 337.912 253.901 330.337 253.901 330.337C253.901 330.337 254.421 328.985 255.069 326.85C256.799 332.036 258.912 335.419 261.468 336.13L261.913 341.923C261.913 341.923 256.127 344.596 261.468 344.596C261.778 344.585 262.086 344.539 262.386 344.46L261.913 346.824C261.913 346.824 259.243 349.498 260.578 350.834Z" fill="#D0CDE1"/>
<path d="M374.935 590.373C572.555 590.373 732.757 587.73 732.757 584.469C732.757 581.209 572.555 578.565 374.935 578.565C177.316 578.565 17.1135 581.209 17.1135 584.469C17.1135 587.73 177.316 590.373 374.935 590.373Z" fill="#3F3D56"/>
<path d="M500.171 614.974C717.551 614.974 893.772 608.145 893.772 599.722C893.772 591.298 717.551 584.469 500.171 584.469C282.79 584.469 106.569 591.298 106.569 599.722C106.569 608.145 282.79 614.974 500.171 614.974Z" fill="#3F3D56"/>
<path d="M427.527 637.607C534.209 637.607 620.692 630.778 620.692 622.354C620.692 613.931 534.209 607.102 427.527 607.102C320.845 607.102 234.362 613.931 234.362 622.354C234.362 630.778 320.845 637.607 427.527 637.607Z" fill="#3F3D56"/>
<path d="M706.707 648.431C754.211 648.431 792.721 644.907 792.721 640.559C792.721 636.211 754.211 632.687 706.707 632.687C659.202 632.687 620.692 636.211 620.692 640.559C620.692 644.907 659.202 648.431 706.707 648.431Z" fill="#3F3D56"/>
<path d="M588.743 675C611.274 675 629.539 671.476 629.539 667.128C629.539 662.78 611.274 659.256 588.743 659.256C566.213 659.256 547.948 662.78 547.948 667.128C547.948 671.476 566.213 675 588.743 675Z" fill="#3F3D56"/>
<path d="M256.481 641.543C279.011 641.543 297.276 638.018 297.276 633.671C297.276 629.323 279.011 625.799 256.481 625.799C233.95 625.799 215.685 629.323 215.685 633.671C215.685 638.018 233.95 641.543 256.481 641.543Z" fill="#3F3D56"/>
<path d="M458.001 544.616L461.933 572.169L481.594 570.201L479.628 541.664L458.001 544.616Z" fill="#FFB8B8"/>
<path d="M364.613 544.616L360.681 572.169L341.021 570.201L342.987 541.664L364.613 544.616Z" fill="#FFB8B8"/>
<path d="M336.106 259.248C336.106 259.248 318.411 279.912 322.343 312.385C326.275 344.858 333.157 418.66 333.157 418.66L338.072 549.536L369.529 547.568L374.444 436.373L390.172 346.826L432.442 451.133C432.442 451.133 453.086 548.552 454.069 548.552C455.052 548.552 483.56 545.6 483.56 545.6L469.797 430.469C469.797 430.469 448.171 263.184 435.391 260.232C422.612 257.28 336.106 259.248 336.106 259.248Z" fill="#2F2E41"/>
<path d="M483.56 566.265C483.56 566.265 465.865 554.457 458.984 568.233C452.103 582.009 458.001 591.85 458.001 591.85C458.001 591.85 463.899 595.786 460.95 599.722C458.001 603.658 457.018 629.243 482.577 625.307C508.135 621.371 495.356 594.802 495.356 594.802L483.56 566.265Z" fill="#2F2E41"/>
<path d="M339.055 566.265C339.055 566.265 356.749 554.457 363.63 568.233C370.512 582.009 364.613 591.85 364.613 591.85C364.613 591.85 358.715 595.786 361.664 599.722C364.613 603.658 365.596 629.243 340.038 625.307C314.479 621.371 327.258 594.802 327.258 594.802L339.055 566.265Z" fill="#2F2E41"/>
<path d="M360.19 67.8541C360.19 67.8541 369.037 92.4548 362.156 106.231C355.275 120.008 372.969 135.752 372.969 135.752C372.969 135.752 419.171 112.135 413.273 100.327C407.375 88.5187 397.545 72.7743 399.511 62.934L360.19 67.8541Z" fill="#FFB8B8"/>
<path d="M377.393 77.2024C394.766 77.2024 408.85 63.1043 408.85 45.7135C408.85 28.3226 394.766 14.2245 377.393 14.2245C360.02 14.2245 345.936 28.3226 345.936 45.7135C345.936 63.1043 360.02 77.2024 377.393 77.2024Z" fill="#FFB8B8"/>
<path d="M354.783 104.755C354.783 104.755 386.346 131.047 409.886 93.7923L434.408 107.707L447.188 257.28C447.188 257.28 375.427 298.609 341.021 263.184L345.936 124.436L354.783 104.755Z" fill="#D0CDE1"/>
<path d="M364.695 90.0269L320.377 119.515L336.106 192.333L315.462 305.497L348.885 255.311L364.695 90.0269Z" fill="#575A89"/>
<path d="M403.863 81.819L414.748 89.0107L458.984 104.755L452.103 226.775L470.78 305.497L444.239 319.274C444.239 319.274 439.323 281.88 408.85 263.184C378.376 244.487 396.91 87.4196 403.863 81.819Z" fill="#575A89"/>
<path d="M330.207 273.024L342.987 281.88C342.987 281.88 326.767 299.101 323.818 296.149C322.964 295.329 322.302 294.33 321.877 293.225C321.452 292.119 321.276 290.934 321.36 289.753L318.411 282.864L330.207 273.024Z" fill="#FFB8B8"/>
<path d="M415.16 271.11L410.816 277.944C410.816 277.944 398.036 283.848 400.985 287.785C403.934 291.721 428.51 300.577 433.425 291.721L438.34 282.864L415.16 271.11Z" fill="#FFB8B8"/>
<path d="M326.275 118.532L319.394 119.516L308.089 192.826C308.089 192.826 303.666 206.11 308.581 237.599C313.496 269.088 318.363 289.593 318.363 289.593L340.038 274.008L330.207 248.423L342.987 154.941L326.275 118.532Z" fill="#575A89"/>
<path d="M443.255 102.787L458.984 104.755C458.984 104.755 476.678 123.452 479.627 143.132C482.577 162.813 481.594 218.903 481.594 218.903L436.374 290.737L411.799 273.024L446.205 212.014L429.493 139.196L443.255 102.787Z" fill="#575A89"/>
<path d="M407.39 17.2335C402.633 9.50103 395.188 3.80307 386.486 1.23624L380.094 6.35447L382.579 0.38463C380.49 0.0655253 378.375 -0.0568315 376.262 0.0191623L370.512 7.4203L372.892 0.272677C367.902 0.893412 363.095 2.54238 358.773 5.11558C354.452 7.68879 350.709 11.1304 347.783 15.2235C340.464 25.7876 339.229 40.4789 346.427 51.1257C348.404 45.0467 350.802 39.3427 352.778 33.2637C354.331 33.4756 355.905 33.4833 357.46 33.2865L359.864 27.671L360.536 33.049C367.988 32.399 379.041 30.9723 386.105 29.665L385.418 25.5393L389.528 28.9677C391.693 28.4689 392.978 28.0167 392.871 27.671C398.125 36.1498 403.331 41.5654 408.585 50.0441C410.58 38.0845 414.101 28.1433 407.39 17.2335Z" fill="#2F2E41"/>
<path d="M405.648 48.9875C406.824 48.9875 407.778 47.0787 407.778 44.7242C407.778 42.3696 406.824 40.4609 405.648 40.4609C404.472 40.4609 403.519 42.3696 403.519 44.7242C403.519 47.0787 404.472 48.9875 405.648 48.9875Z" fill="#FFB8B8"/>
<path d="M745.898 601.277C746.804 632.331 728.677 643.712 705.929 644.377C705.401 644.392 704.875 644.402 704.351 644.405C703.296 644.413 702.252 644.395 701.217 644.352C680.644 643.497 664.359 632.565 663.516 603.685C662.644 573.798 699.704 534.964 702.484 532.092L702.489 532.089C702.595 531.98 702.649 531.925 702.649 531.925C702.649 531.925 744.992 570.225 745.898 601.277Z" fill="#4E69D0"/>
<path d="M218.996 555.027C219.902 586.082 201.775 597.462 179.027 598.127C178.499 598.143 177.973 598.152 177.449 598.156C176.394 598.164 175.35 598.146 174.315 598.103C153.742 597.248 137.457 586.316 136.614 557.436C135.742 527.548 172.801 488.715 175.582 485.843L175.587 485.84C175.692 485.73 175.747 485.676 175.747 485.676C175.747 485.676 218.09 523.976 218.996 555.027Z" fill="#4E69D0"/>
<path d="M177.389 593.421L191.84 571.91L177.419 595.735L177.449 598.156C176.394 598.164 175.35 598.146 174.315 598.103L175.032 566.989L175.012 566.749L175.039 566.702L175.107 563.762L159.282 540.763L175.089 561.562L175.145 562.183L175.686 538.675L162.018 514.83L175.725 534.545L175.582 485.843L175.582 485.68L175.587 485.84L176.494 524.224L188.951 508.632L176.535 527.531L176.807 548.558L188.27 528.036L176.849 551.65L177 563.342L193.671 534.755L177.051 567.421L177.389 593.421Z" fill="#3F3D56"/>
<path d="M612.715 645.057C613.247 663.285 602.607 669.965 589.255 670.356C588.945 670.365 588.636 670.37 588.329 670.372C587.709 670.377 587.096 670.367 586.489 670.341C574.413 669.839 564.854 663.423 564.359 646.471C563.848 628.927 585.6 606.133 587.233 604.447L587.235 604.446C587.297 604.381 587.329 604.349 587.329 604.349C587.329 604.349 612.184 626.83 612.715 645.057Z" fill="#4E69D0"/>
<path d="M588.293 667.593L596.775 654.967L588.311 668.951L588.328 670.372C587.709 670.377 587.096 670.367 586.489 670.341L586.91 652.078L586.898 651.937L586.914 651.91L586.954 650.184L577.665 636.684L586.943 648.892L586.976 649.257L587.294 635.458L579.271 621.462L587.316 633.034L587.232 604.447L587.233 604.352L587.235 604.446L587.768 626.976L595.08 617.824L587.792 628.917L587.951 641.26L594.68 629.214L587.976 643.074L588.065 649.937L597.85 633.158L588.095 652.332L588.293 667.593Z" fill="#3F3D56"/>
<path d="M62.0833 568.315L111.629 494.56L62.1846 576.249L62.288 584.548C58.671 584.576 55.0891 584.516 51.5423 584.368L53.9997 477.687L53.9324 476.864L54.0231 476.705L54.2583 466.624L0 387.767L54.1943 459.079L54.3866 461.21L56.2427 380.608L9.37813 298.851L56.3761 366.449L55.8856 199.463L55.8867 198.907L55.9026 199.454L59.0136 331.061L101.725 277.602L59.1534 342.399L60.0856 414.495L99.3889 344.132L60.23 425.094L60.7489 465.184L117.907 367.168L60.9227 479.169L62.0833 568.315Z" fill="#3F3D56"/>
</g>
<defs>
<clipPath id="clip0_615_581">
<rect width="943" height="675" fill="white"/>
</clipPath>
</defs>
</svg>
