<svg width="267" height="267" viewBox="0 0 267 267" fill="none" xmlns="http://www.w3.org/2000/svg">
<path d="M182.259 92.042H170.03C167.37 92.042 164.841 93.3196 163.277 95.5099L122.288 152.352L103.723 126.59C102.159 124.426 99.6555 123.122 96.9699 123.122H84.7411C83.0463 123.122 82.0555 125.052 83.0463 126.434L115.535 171.49C116.302 172.561 117.314 173.434 118.486 174.036C119.658 174.638 120.957 174.953 122.275 174.953C123.593 174.953 124.892 174.638 126.064 174.036C127.236 173.434 128.248 172.561 129.015 171.49L183.927 95.3534C184.944 93.9715 183.953 92.042 182.259 92.042Z" fill="#4E69D0"/>
<path d="M133.5 16.6875C68.9924 16.6875 16.6875 68.9924 16.6875 133.5C16.6875 198.008 68.9924 250.312 133.5 250.312C198.008 250.312 250.312 198.008 250.312 133.5C250.312 68.9924 198.008 16.6875 133.5 16.6875ZM133.5 230.496C79.9436 230.496 36.5039 187.056 36.5039 133.5C36.5039 79.9436 79.9436 36.5039 133.5 36.5039C187.056 36.5039 230.496 79.9436 230.496 133.5C230.496 187.056 187.056 230.496 133.5 230.496Z" fill="#4E69D0"/>
</svg>
