<svg width="511" height="464" viewBox="0 0 511 464" fill="none" xmlns="http://www.w3.org/2000/svg">
<g clip-path="url(#clip0_651_498)">
<path d="M258.97 115.456H71.8441C59.6679 115.456 49.7971 125.342 49.7971 137.536V322.549C49.7971 334.744 59.6679 344.629 71.8441 344.629H258.97C271.146 344.629 281.017 334.744 281.017 322.549V137.536C281.017 125.342 271.146 115.456 258.97 115.456Z" fill="#F2F2F2"/>
<path d="M111.14 119.997C96.0733 119.997 81.6239 125.991 70.9702 136.66C60.3165 147.329 54.3313 161.8 54.3313 176.889V322.549C54.3313 324.853 54.7843 327.133 55.6644 329.261C56.5445 331.389 57.8345 333.323 59.4607 334.951C61.087 336.58 63.0176 337.872 65.1424 338.753C67.2672 339.635 69.5445 340.088 71.8443 340.088H191.273C213.872 340.088 235.545 331.098 251.525 315.094C267.505 299.091 276.483 277.385 276.483 254.753V137.536C276.483 132.884 274.638 128.423 271.354 125.134C268.069 121.845 263.615 119.997 258.97 119.997H111.14Z" fill="white"/>
<path d="M193.948 262.038H67.0008C66.2747 262.038 65.5784 261.749 65.065 261.235C64.5516 260.721 64.2632 260.023 64.2632 259.296C64.2632 258.569 64.5516 257.872 65.065 257.358C65.5784 256.844 66.2747 256.555 67.0008 256.555H193.948C194.674 256.555 195.37 256.844 195.883 257.358C196.397 257.872 196.685 258.569 196.685 259.296C196.685 260.023 196.397 260.721 195.883 261.235C195.37 261.749 194.674 262.038 193.948 262.038Z" fill="#F2F2F2"/>
<path d="M193.948 183.837H2.7381C2.37819 183.838 2.02168 183.767 1.68899 183.63C1.3563 183.492 1.05395 183.29 0.79924 183.036C0.544526 182.781 0.342462 182.479 0.204587 182.146C0.0667119 181.813 -0.00427246 181.456 -0.00427246 181.095C-0.00427246 180.735 0.0667119 180.378 0.204587 180.045C0.342462 179.712 0.544526 179.41 0.79924 179.155C1.05395 178.9 1.3563 178.699 1.68899 178.561C2.02168 178.424 2.37819 178.353 2.7381 178.354H193.948C194.673 178.355 195.368 178.644 195.88 179.158C196.393 179.672 196.68 180.369 196.68 181.095C196.68 181.822 196.393 182.518 195.88 183.032C195.368 183.546 194.673 183.836 193.948 183.837Z" fill="#F2F2F2"/>
<path d="M193.951 203.415H2.73375C2.00795 203.416 1.31232 203.705 0.79955 204.22C0.286777 204.734 -0.0012207 205.431 -0.0012207 206.158C-0.0012207 206.885 0.286777 207.582 0.79955 208.097C1.31232 208.611 2.00795 208.901 2.73375 208.902H193.951C194.677 208.901 195.373 208.611 195.885 208.097C196.398 207.582 196.686 206.885 196.686 206.158C196.686 205.431 196.398 204.734 195.885 204.22C195.373 203.705 194.677 203.416 193.951 203.415Z" fill="#F2F2F2"/>
<path d="M193.948 233.967H2.7381C2.01204 233.967 1.31572 233.678 0.802316 233.164C0.288914 232.65 0.000488281 231.952 0.000488281 231.225C0.000488281 230.498 0.288914 229.801 0.802316 229.287C1.31572 228.772 2.01204 228.484 2.7381 228.484H193.948C194.674 228.484 195.37 228.772 195.883 229.287C196.397 229.801 196.685 230.498 196.685 231.225C196.685 231.952 196.397 232.65 195.883 233.164C195.37 233.678 194.674 233.967 193.948 233.967Z" fill="#F2F2F2"/>
<path d="M354.958 453.006L346.18 453.005L342.004 419.096L354.96 419.097L354.958 453.006Z" fill="#A0616A"/>
<path d="M355.267 462.177L328.272 462.176V461.834C328.273 459.044 329.38 456.367 331.35 454.394C333.321 452.421 335.993 451.312 338.779 451.312H338.78L343.711 447.566L352.911 451.313L355.267 451.313L355.267 462.177Z" fill="#2F2E41"/>
<path d="M443.284 453.006L434.506 453.005L430.329 419.096L443.286 419.097L443.284 453.006Z" fill="#A0616A"/>
<path d="M443.593 462.177L416.598 462.176V461.834C416.599 459.044 417.706 456.367 419.676 454.394C421.646 452.421 424.319 451.312 427.105 451.312H427.106L432.037 447.566L441.237 451.313L443.593 451.313L443.593 462.177Z" fill="#2F2E41"/>
<path d="M362.12 258.198C362.12 258.198 356.355 264.325 356.112 268.301C355.868 272.276 358.873 265.055 355.868 272.276C352.864 279.497 352.864 274.683 352.864 279.497C352.864 284.311 346.498 289.011 346.498 289.011L336 332.265L342.049 433.542H355.268C367.552 396.04 373.267 367.08 366.684 354.112L385.041 313.25C385.041 313.25 419.729 421.954 421.146 423.235C422.563 424.516 422.563 422.71 422.563 424.516C422.563 426.321 420.761 424.516 422.563 426.321L430.975 434.745L443.593 433.542C443.593 433.542 445.282 354.839 431.219 341.238C431.219 341.238 434.467 299.118 431.219 299.236C427.971 299.354 427.971 304.77 427.971 299.354C427.971 293.939 431.82 292.493 431.82 292.493L421.004 254.453L362.12 258.198Z" fill="#2F2E41"/>
<path d="M430.232 174.35L418.014 225.577L420.9 244.631L424.362 267.458L412.392 266.682L393.869 265.477L359.476 263.248L356.467 162.156L372.245 145.644L375.065 137.628L397.875 137.488L403.332 147.114L417.363 151.11C419.167 152.256 420.861 153.566 422.425 155.023C425.887 158.234 428.954 162.313 430.388 166.49C430.821 167.707 431.095 168.976 431.204 170.263L430.232 174.35Z" fill="#F02E4E"/>
<path d="M324.055 304.326C324.974 303.817 325.772 303.115 326.393 302.267C327.014 301.419 327.444 300.446 327.653 299.415C327.862 298.385 327.845 297.321 327.603 296.297C327.361 295.274 326.9 294.315 326.252 293.488L343.652 261.764L336.073 254.787L315.682 292.617C314.372 293.813 313.547 295.449 313.361 297.215C313.176 298.98 313.643 300.753 314.675 302.196C315.707 303.639 317.232 304.653 318.961 305.046C320.69 305.439 322.502 305.182 324.055 304.326Z" fill="#F02E4E"/>
<path d="M366.493 155.975L362.437 228.737L342.897 274.464L330.179 291.354L331.625 283.7L322.859 279.307L322.035 278.898L338.865 213.489L340.416 188.072C340.683 183.698 341.854 179.427 343.854 175.53C345.854 171.632 348.64 168.192 352.036 165.429L361.77 157.51L366.493 155.975Z" fill="#F02E4E"/>
<path d="M324.055 304.326C324.974 303.817 325.772 303.115 326.393 302.267C327.014 301.419 327.444 300.446 327.653 299.415C327.862 298.385 327.845 297.321 327.603 296.297C327.361 295.274 326.9 294.315 326.252 293.488L343.652 261.764L336.073 254.787L315.682 292.617C314.372 293.813 313.547 295.449 313.361 297.215C313.176 298.98 313.643 300.753 314.675 302.196C315.707 303.639 317.232 304.653 318.961 305.046C320.69 305.439 322.502 305.182 324.055 304.326Z" fill="#A0616A"/>
<path d="M366.493 155.975L362.437 228.737L342.897 274.464L330.179 291.354L331.625 283.7L322.859 279.307L322.035 278.898L338.865 213.489L340.416 188.072C340.683 183.698 341.854 179.427 343.854 175.53C345.854 171.632 348.64 168.192 352.036 165.429L361.77 157.51L366.493 155.975Z" fill="#F02E4E"/>
<path d="M385.326 158.484H198.2C186.023 158.484 176.153 168.369 176.153 180.563V277.24C176.153 289.434 186.023 299.32 198.2 299.32H385.326C397.502 299.32 407.373 289.434 407.373 277.24V180.563C407.373 168.369 397.502 158.484 385.326 158.484Z" fill="white"/>
<path d="M385.326 300.145H198.2C192.136 300.138 186.323 297.723 182.035 293.429C177.747 289.135 175.335 283.313 175.328 277.24V180.563C175.335 174.49 177.747 168.669 182.035 164.375C186.323 160.08 192.136 157.665 198.2 157.658H385.326C391.39 157.665 397.203 160.081 401.491 164.375C405.778 168.669 408.19 174.491 408.197 180.563V277.24C408.19 283.313 405.778 289.135 401.491 293.429C397.203 297.723 391.39 300.138 385.326 300.145ZM198.2 159.309C192.571 159.309 187.173 161.549 183.193 165.534C179.213 169.52 176.977 174.926 176.977 180.563V216.698C176.977 238.392 185.582 259.197 200.9 274.537C216.217 289.876 236.991 298.494 258.653 298.494H385.326C390.954 298.494 396.352 296.255 400.332 292.269C404.312 288.283 406.548 282.878 406.548 277.241V180.563C406.548 177.772 405.999 175.008 404.933 172.43C403.866 169.851 402.303 167.508 400.332 165.534C398.362 163.561 396.022 161.995 393.447 160.927C390.872 159.859 388.113 159.309 385.326 159.309L198.2 159.309Z" fill="#3F3D56"/>
<path d="M247.659 261.099H203.967C202.374 261.099 201.082 262.393 201.082 263.989C201.082 265.585 202.374 266.878 203.967 266.878H247.659C249.252 266.878 250.544 265.585 250.544 263.989C250.544 262.393 249.252 261.099 247.659 261.099Z" fill="#4E69D0"/>
<path d="M379.558 253.256H349.056C347.463 253.256 346.171 254.55 346.171 256.146V271.832C346.171 273.428 347.463 274.721 349.056 274.721H379.558C381.151 274.721 382.443 273.428 382.443 271.832V256.146C382.443 254.55 381.151 253.256 379.558 253.256Z" fill="#4E69D0"/>
<path d="M215.921 212.803C224.116 212.803 230.759 206.15 230.759 197.943C230.759 189.735 224.116 183.082 215.921 183.082C207.726 183.082 201.082 189.735 201.082 197.943C201.082 206.15 207.726 212.803 215.921 212.803Z" fill="#4E69D0"/>
<path d="M385.637 133.233C395.927 133.233 404.269 124.879 404.269 114.573C404.269 104.268 395.927 95.9141 385.637 95.9141C375.347 95.9141 367.005 104.268 367.005 114.573C367.005 124.879 375.347 133.233 385.637 133.233Z" fill="#A0616A"/>
<path d="M400.922 124.218C401.068 125.333 399.054 125.45 398.6 124.422C398.146 123.394 398.735 122.229 399.307 121.262L400.636 119.017C400.887 118.595 401.033 118.118 401.062 117.628C401.091 117.137 401.003 116.647 400.804 116.197C400.606 115.748 400.303 115.352 399.921 115.044C399.539 114.735 399.089 114.523 398.608 114.424C399.824 111.685 398.504 108.266 396.081 106.505C393.658 104.745 390.053 108.039 387.113 108.603C384.173 109.168 381.819 106.915 379.14 108.251L380.75 104.534L371.838 108.379L373.908 104.198C371.659 104.32 370.702 107.064 370.254 109.274C369.776 111.63 368.523 114.574 365.966 114.086C365.36 113.951 364.804 113.646 364.363 113.209C363.921 112.771 363.612 112.217 363.471 111.611C361.496 103.982 367.232 95.6413 374.836 94.3032C375.649 92.0548 377.16 90.1263 379.147 88.8001C381.134 87.474 383.493 86.8198 385.878 86.9336C388.263 87.0473 390.549 87.9229 392.401 89.4321C394.254 90.9414 395.575 93.0049 396.171 95.3205L398.664 92.2637L399.15 96.5949C400.942 96.4042 402.634 97.6709 403.505 99.2505C404.376 100.83 403.964 102.87 404.8 104.468C408.546 111.632 407.307 119.696 401.522 125.19" fill="#2F2E41"/>
<path d="M466.271 449.69C466.654 449.708 467.033 449.607 467.357 449.402C467.681 449.196 467.935 448.896 468.083 448.541C468.231 448.187 468.266 447.796 468.185 447.42C468.103 447.045 467.908 446.704 467.627 446.443L467.498 445.933C467.515 445.892 467.532 445.851 467.549 445.81C467.935 444.897 468.582 444.118 469.409 443.572C470.235 443.026 471.204 442.737 472.194 442.74C473.184 442.744 474.151 443.041 474.974 443.593C475.796 444.145 476.437 444.929 476.816 445.845C478.332 449.5 480.262 453.162 480.737 457.028C480.946 458.736 480.858 460.468 480.476 462.147C484.036 454.37 485.884 445.917 485.896 437.362C485.897 435.216 485.778 433.07 485.54 430.937C485.343 429.188 485.069 427.451 484.72 425.727C482.812 416.372 478.715 407.604 472.766 400.143C469.887 398.57 467.558 396.15 466.095 393.211C465.564 392.154 465.189 391.026 464.982 389.862C465.306 389.905 466.206 384.951 465.961 384.647C466.414 383.959 467.224 383.618 467.718 382.946C470.177 379.608 473.564 380.191 475.332 384.727C479.11 386.637 479.146 389.803 476.829 392.848C475.354 394.786 475.152 397.408 473.858 399.482C473.991 399.652 474.129 399.818 474.262 399.988C476.696 403.122 478.816 406.487 480.594 410.034C480.162 406.06 480.678 402.039 482.1 398.303C483.541 394.822 486.242 391.889 488.621 388.879C489.25 388.071 490.105 387.467 491.076 387.145C492.048 386.822 493.093 386.796 494.08 387.068C495.067 387.341 495.951 387.9 496.62 388.675C497.289 389.451 497.714 390.408 497.841 391.425C497.846 391.469 497.85 391.514 497.855 391.558C497.502 391.758 497.156 391.969 496.817 392.194C496.392 392.478 496.063 392.884 495.872 393.36C495.682 393.835 495.639 394.356 495.75 394.856C495.86 395.356 496.119 395.811 496.492 396.161C496.865 396.511 497.335 396.74 497.841 396.818L497.892 396.826C497.766 398.102 497.544 399.365 497.227 400.607C500.278 412.426 493.69 416.73 484.283 416.924C484.075 417.03 483.873 417.137 483.665 417.238C485.452 422.308 486.572 427.588 486.998 432.947C487.24 436.109 487.226 439.285 486.956 442.444L486.972 442.332C487.653 438.819 489.525 435.649 492.27 433.358C496.347 430.004 502.107 428.769 506.505 426.073C506.973 425.772 507.516 425.612 508.072 425.61C508.627 425.609 509.171 425.767 509.64 426.065C510.109 426.363 510.483 426.79 510.718 427.294C510.953 427.798 511.039 428.359 510.966 428.91L510.948 429.028C510.292 429.295 509.654 429.604 509.036 429.95C508.683 430.15 508.337 430.362 507.999 430.586C507.574 430.871 507.244 431.277 507.054 431.752C506.863 432.227 506.821 432.749 506.931 433.249C507.042 433.749 507.301 434.204 507.674 434.554C508.047 434.904 508.517 435.133 509.022 435.211L509.074 435.219C509.111 435.224 509.143 435.229 509.18 435.235C508.06 437.914 506.488 440.379 504.532 442.524C502.624 452.841 494.429 453.82 485.662 450.816H485.657C484.695 455.002 483.301 459.076 481.498 462.973H466.643C466.59 462.808 466.542 462.637 466.494 462.472C467.869 462.559 469.249 462.476 470.604 462.227C469.502 460.872 468.4 459.507 467.298 458.153C467.273 458.128 467.25 458.101 467.229 458.073C466.67 457.38 466.105 456.692 465.546 455.999L465.546 455.998C465.516 453.873 465.759 451.753 466.27 449.691L466.271 449.69Z" fill="#F2F2F2"/>
<path d="M236.642 463.018C236.641 463.147 236.666 463.275 236.716 463.394C236.765 463.513 236.837 463.622 236.928 463.713C237.019 463.804 237.128 463.877 237.247 463.926C237.366 463.975 237.494 464 237.623 464H509.903C510.164 464 510.413 463.897 510.597 463.712C510.781 463.528 510.884 463.278 510.884 463.018C510.884 462.757 510.781 462.507 510.597 462.323C510.413 462.139 510.164 462.035 509.903 462.035H237.623C237.494 462.035 237.366 462.06 237.247 462.109C237.128 462.158 237.019 462.231 236.928 462.322C236.837 462.413 236.765 462.522 236.716 462.641C236.666 462.761 236.641 462.888 236.642 463.018Z" fill="#CCCCCC"/>
<path d="M393.572 299.911C394.473 299.369 395.245 298.639 395.836 297.769C396.427 296.9 396.822 295.912 396.994 294.875C397.167 293.837 397.112 292.775 396.834 291.76C396.555 290.746 396.061 289.805 395.383 289.001L411.647 256.678L403.825 249.975L384.789 288.507C383.523 289.749 382.756 291.413 382.633 293.184C382.51 294.955 383.04 296.71 384.123 298.115C385.206 299.521 386.766 300.48 388.507 300.811C390.249 301.142 392.051 300.822 393.572 299.911Z" fill="#A0616A"/>
<path d="M430.388 166.49L431.204 170.263L429.251 223.001L420.9 244.631L412.392 266.682L411.345 269.398L399.235 286.727L400.406 279.025L391.486 274.946L390.654 274.575L393.869 265.477L401.263 244.573L404.462 235.525L405.154 208.603L405.797 183.15C405.909 178.77 406.927 174.46 408.788 170.494C410.648 166.528 413.31 162.992 416.605 160.108L422.425 155.023C425.887 158.234 428.954 162.313 430.388 166.49Z" fill="#F02E4E"/>
<path d="M235.829 298.238L197.184 297.412C192.377 297.405 187.769 295.489 184.37 292.084C180.972 288.679 179.06 284.064 179.055 279.249L177.406 238.786C182.151 271.775 200.386 292.7 235.829 298.238Z" fill="#4E69D0"/>
</g>
<defs>
<clipPath id="clip0_651_498">
<rect width="511" height="464" fill="white"/>
</clipPath>
</defs>
</svg>
