<svg width="490" height="447" viewBox="0 0 490 447" fill="none" xmlns="http://www.w3.org/2000/svg">
<g clip-path="url(#clip0_601_614)">
<path d="M370.724 201.008C352.208 201.008 337.197 182.692 337.197 160.098C337.197 137.504 352.208 119.187 370.724 119.187C389.24 119.187 404.25 137.504 404.25 160.098C404.25 182.692 389.24 201.008 370.724 201.008Z" fill="#2F2E41"/>
<path d="M398.77 421.021L418.112 422.954C418.112 422.954 424.559 434.551 436.164 434.551C447.77 434.551 443.901 447.436 427.138 446.147C410.375 444.859 392.322 440.349 391.678 439.061C391.033 437.772 393.612 420.377 398.77 421.021Z" fill="#3F3D56"/>
<path opacity="0.1" d="M398.77 421.021L418.112 422.954C418.112 422.954 424.559 434.551 436.164 434.551C447.77 434.551 443.901 447.436 427.138 446.147C410.375 444.859 392.322 440.349 391.678 439.061C391.033 437.772 393.612 420.377 398.77 421.021Z" fill="black"/>
<path d="M425.849 308.276C425.849 308.276 403.928 311.498 395.546 321.806C387.165 332.114 392.967 282.506 392.967 282.506L395.546 259.957L412.954 261.246L427.138 290.237L425.849 308.276Z" fill="#3F3D56"/>
<path opacity="0.1" d="M425.849 308.276C425.849 308.276 403.928 311.498 395.546 321.806C387.165 332.114 392.967 282.506 392.967 282.506L395.546 259.957L412.954 261.246L427.138 290.237L425.849 308.276Z" fill="black"/>
<path d="M353.638 179.425C353.638 179.425 343.322 151.078 353.638 150.434C363.954 149.79 362.664 178.137 362.664 178.137L353.638 179.425Z" fill="#A0616A"/>
<path d="M486.776 84.3975H465.827C465.399 84.3975 464.987 84.5677 464.684 84.8707C464.381 85.1737 464.211 85.5847 464.211 86.0132V95.0226C464.211 95.2348 464.252 95.4449 464.334 95.6409C464.415 95.8369 464.534 96.0151 464.684 96.1651C464.834 96.3151 465.013 96.4341 465.209 96.5153C465.405 96.5965 465.615 96.6383 465.827 96.6383H486.776V84.3975Z" fill="#6C63FF"/>
<path d="M488.294 84.3975H467.117C466.688 84.3975 466.277 84.5677 465.974 84.8707C465.67 85.1737 465.5 85.5847 465.5 86.0132V95.0226C465.5 95.2348 465.542 95.4449 465.623 95.6409C465.704 95.8369 465.823 96.0151 465.974 96.1651C466.124 96.3151 466.302 96.4341 466.498 96.5153C466.694 96.5965 466.905 96.6383 467.117 96.6383H488.294C488.747 96.6383 489.181 96.4587 489.5 96.1391C489.82 95.8194 490 95.3859 490 94.9338V86.102C490 85.6499 489.82 85.2163 489.5 84.8967C489.181 84.577 488.747 84.3975 488.294 84.3975Z" fill="#2F2E41"/>
<path d="M470.658 91.4844C469.946 91.4844 469.368 90.9075 469.368 90.1959C469.368 89.4842 469.946 88.9073 470.658 88.9073C471.37 88.9073 471.947 89.4842 471.947 90.1959C471.947 90.9075 471.37 91.4844 470.658 91.4844Z" fill="#6C63FF"/>
<path d="M472.27 98.8933C472.27 98.8933 488.388 67.969 489.678 82.7869C490.967 97.6048 481.296 109.846 481.296 109.846L472.27 98.8933Z" fill="#A0616A"/>
<path d="M378.453 173.04C378.453 173.04 364.276 173.949 362.987 181.68C361.697 189.411 373.303 213.249 373.303 213.249L388.776 211.96L390.711 196.498L378.453 173.04Z" fill="#3F3D56"/>
<path d="M396.191 150.434C396.191 150.434 391.033 176.848 407.796 165.896C424.559 154.944 401.349 185.224 401.349 185.224C401.349 185.224 383.296 189.733 377.493 183.935C371.691 178.137 386.197 177.17 378.138 154.299C369.474 129.712 396.191 150.434 396.191 150.434Z" fill="#A0616A"/>
<path opacity="0.1" d="M396.191 150.434C396.191 150.434 391.033 176.848 407.796 165.896C424.559 154.944 401.349 185.224 401.349 185.224C401.349 185.224 383.296 189.733 377.493 183.935C371.691 178.137 386.197 177.17 378.138 154.299C369.474 129.712 396.191 150.434 396.191 150.434Z" fill="black"/>
<path d="M453.25 240.952C453.25 240.952 438.743 346.288 434.23 352.73C429.717 359.173 414.243 417.156 414.243 417.156L397.48 411.357C398.676 404.334 398.893 397.18 398.125 390.097C396.836 378.5 407.796 347.576 407.796 347.576L423.914 252.226L453.25 240.952Z" fill="#2F2E41"/>
<path opacity="0.1" d="M453.25 240.952C453.25 240.952 438.743 346.288 434.23 352.73C429.717 359.173 414.243 417.156 414.243 417.156L397.48 411.357C398.676 404.334 398.893 397.18 398.125 390.097C396.836 378.5 407.796 347.576 407.796 347.576L423.914 252.226L453.25 240.952Z" fill="black"/>
<path d="M456.796 236.12L442.612 276.708C442.612 276.708 472.27 330.181 447.77 347.576C447.77 347.576 419.401 378.5 416.822 405.559C416.822 405.559 401.993 404.271 400.059 392.674C400.059 392.674 413.599 363.038 414.243 352.73C414.888 342.422 429.717 330.181 429.717 330.181C429.717 330.181 401.349 284.439 394.901 276.708C388.454 268.977 387.809 239.341 403.928 239.341C420.046 239.341 456.796 236.12 456.796 236.12Z" fill="#2F2E41"/>
<path d="M401.349 392.674C401.349 392.674 412.309 406.203 415.533 404.271C415.533 404.271 418.112 431.974 423.914 439.705C429.717 447.436 411.664 446.792 405.217 439.705C398.77 432.618 386.52 405.559 386.52 402.338C386.52 399.117 397.48 390.741 401.349 392.674Z" fill="#3F3D56"/>
<path d="M385.23 161.386C375.616 161.386 367.822 153.598 367.822 143.991C367.822 134.384 375.616 126.596 385.23 126.596C394.844 126.596 402.638 134.384 402.638 143.991C402.638 153.598 394.844 161.386 385.23 161.386Z" fill="#A0616A"/>
<path d="M403.928 164.607C403.928 164.607 403.283 175.56 393.612 178.137C383.941 180.714 376.204 174.271 376.204 174.271L373.625 179.425L382.007 200.041L397.48 250.293C397.48 250.293 443.257 256.736 447.125 245.784C450.993 234.831 440.678 203.907 440.678 203.907L425.849 182.647L420.046 168.473L413.599 161.386L403.928 164.607Z" fill="#F02E4E"/>
<path d="M400.059 167.184C400.059 167.184 410.053 157.199 416.5 157.199C422.947 157.199 428.428 153.011 428.428 153.011C428.428 153.011 449.704 183.935 462.599 221.302C475.493 258.669 493.546 270.265 484.52 279.285C475.493 288.305 461.309 286.372 455.507 296.036C449.704 305.7 449.704 304.411 445.836 289.593C441.967 274.775 446.48 234.187 427.783 216.792C409.086 199.397 400.059 167.184 400.059 167.184Z" fill="#3F3D56"/>
<path d="M426.493 154.944C426.493 154.944 452.283 131.75 455.507 122.086C458.73 112.423 470.98 94.3835 473.559 96.9605C476.138 99.5375 490.322 105.336 487.099 109.846C483.875 114.355 476.138 120.154 471.625 136.26C467.112 152.367 435.52 172.983 435.52 172.983L426.493 154.944Z" fill="#3F3D56"/>
<path d="M379.428 172.983C379.428 172.983 390.388 173.627 396.836 207.772C403.283 241.918 402.638 321.806 396.836 328.248C396.836 328.248 391.033 335.335 390.388 322.45C389.743 309.565 380.072 249.649 382.651 234.187C385.23 218.725 379.428 185.224 371.046 179.425C362.665 173.627 379.428 172.983 379.428 172.983Z" fill="#3F3D56"/>
<path d="M385.23 201.33C385.23 201.33 363.954 210.994 364.599 218.081C365.243 225.167 365.888 239.341 392.322 216.148L385.23 201.33Z" fill="#3F3D56"/>
<path d="M377.493 201.33C377.493 201.33 386.52 222.59 374.914 226.456C363.309 230.322 360.086 208.417 360.086 208.417C360.086 208.417 351.059 183.935 351.704 178.781C352.349 173.627 365.243 172.983 366.533 176.204C367.822 179.425 377.493 201.33 377.493 201.33Z" fill="#3F3D56"/>
<path d="M370.724 190.055C366.451 190.055 362.987 177.364 362.987 161.708C362.987 146.052 366.451 133.361 370.724 133.361C374.997 133.361 378.461 146.052 378.461 161.708C378.461 177.364 374.997 190.055 370.724 190.055Z" fill="#2F2E41"/>
<path d="M376.526 141.092C363.707 141.092 353.316 136.044 353.316 129.818C353.316 123.591 363.707 118.543 376.526 118.543C389.345 118.543 399.737 123.591 399.737 129.818C399.737 136.044 389.345 141.092 376.526 141.092Z" fill="#2F2E41"/>
<path opacity="0.1" d="M374.592 139.803C387.411 139.803 397.803 134.756 397.803 128.529C397.803 126.333 396.506 124.286 394.271 122.553C397.679 124.515 399.737 127.049 399.737 129.818C399.737 136.044 389.345 141.092 376.526 141.092C368.228 141.092 367.472 139.803 374.592 139.803Z" fill="black"/>
<path d="M345.184 365.464C343.349 366.44 341.313 366.977 339.236 367.033C337.159 367.088 335.097 366.661 333.213 365.784C331.329 364.908 329.674 363.606 328.38 361.981C327.085 360.357 326.186 358.454 325.753 356.423C325.32 354.392 325.365 352.289 325.884 350.278C326.403 348.267 327.383 346.404 328.746 344.837C330.108 343.269 331.817 342.039 333.736 341.243C335.656 340.448 337.734 340.108 339.807 340.253L340.443 347.133L342.849 340.819C346.235 341.861 349.069 344.203 350.728 347.332C351.315 348.427 351.744 349.6 352.001 350.815C352.613 353.666 352.279 356.638 351.049 359.281C349.818 361.924 347.759 364.095 345.184 365.464Z" fill="#57B894"/>
<path d="M340.402 446.983C340.721 441.01 335.043 436.558 329.68 433.901C324.317 431.243 318.139 428.761 315.666 423.314C312.112 415.485 318.193 406.995 322.836 399.759C326.281 394.389 329.077 388.63 331.165 382.602C332.002 380.185 332.731 377.679 332.679 375.122C332.605 371.44 330.93 368.002 329.268 364.714C323.732 353.763 317.939 342.946 311.89 332.263" stroke="#3F3D56" stroke-miterlimit="10"/>
<path d="M344.387 363.782C342.553 364.758 340.517 365.295 338.44 365.351C336.362 365.406 334.3 364.979 332.416 364.102C330.532 363.226 328.878 361.924 327.584 360.3C326.289 358.675 325.39 356.772 324.957 354.741C324.523 352.71 324.568 350.607 325.088 348.596C325.607 346.585 326.587 344.723 327.949 343.155C329.312 341.587 331.021 340.357 332.94 339.561C334.86 338.766 336.938 338.427 339.011 338.571L339.647 345.451L342.052 339.137C345.439 340.179 348.273 342.522 349.932 345.65C350.519 346.745 350.947 347.918 351.205 349.133C351.817 351.984 351.483 354.956 350.252 357.599C349.022 360.243 346.963 362.413 344.387 363.782Z" stroke="#3F3D56" stroke-miterlimit="10"/>
<path d="M325.2 327.974C324.144 325.989 322.606 324.301 320.727 323.066C318.847 321.831 316.687 321.089 314.444 320.908L314.271 327.559L311.276 321.023C308.466 321.463 305.869 322.784 303.859 324.795C301.849 326.806 300.531 329.404 300.095 332.212C299.659 335.021 300.127 337.895 301.433 340.421C302.738 342.946 304.813 344.991 307.357 346.262C309.902 347.532 312.784 347.961 315.589 347.488C318.393 347.014 320.975 345.662 322.96 343.627C324.946 341.592 326.233 338.979 326.635 336.166C327.038 333.352 326.535 330.483 325.2 327.974Z" fill="#57B894"/>
<path d="M324.138 325.731C323.083 323.746 321.544 322.058 319.665 320.823C317.785 319.589 315.625 318.846 313.383 318.665L313.209 325.316L310.214 318.78C307.404 319.22 304.807 320.541 302.797 322.552C300.788 324.564 299.469 327.161 299.033 329.97C298.597 332.778 299.066 335.653 300.371 338.178C301.676 340.703 303.751 342.749 306.295 344.019C308.84 345.289 311.722 345.719 314.527 345.245C317.332 344.771 319.913 343.42 321.898 341.384C323.884 339.349 325.171 336.736 325.574 333.923C325.976 331.109 325.473 328.241 324.138 325.731Z" stroke="#3F3D56" stroke-miterlimit="10"/>
<path d="M325.187 399.561C322.278 401.106 318.901 401.528 315.7 400.745C312.5 399.963 309.7 398.031 307.833 395.318C305.966 392.605 305.164 389.3 305.579 386.034C305.994 382.768 307.597 379.768 310.083 377.607L312.384 382.63L312.558 375.901C312.569 375.894 312.579 375.888 312.59 375.883C314.146 375.055 315.85 374.542 317.605 374.373C319.359 374.203 321.13 374.381 322.816 374.895C324.502 375.41 326.07 376.251 327.43 377.372C328.79 378.492 329.916 379.869 330.744 381.424C331.571 382.98 332.084 384.683 332.252 386.436C332.421 388.189 332.242 389.959 331.726 391.643C331.21 393.327 330.367 394.894 329.245 396.252C328.123 397.611 326.744 398.735 325.187 399.561V399.561Z" fill="#57B894"/>
<path d="M324.218 397.274C321.309 398.82 317.932 399.241 314.732 398.459C311.531 397.676 308.731 395.744 306.864 393.031C304.998 390.318 304.195 387.014 304.61 383.747C305.025 380.481 306.629 377.482 309.115 375.321L311.416 380.343L311.59 373.614C311.6 373.608 311.611 373.602 311.622 373.597C313.178 372.769 314.882 372.256 316.636 372.087C318.39 371.918 320.161 372.095 321.847 372.61C323.532 373.125 325.1 373.966 326.46 375.087C327.82 376.207 328.946 377.584 329.773 379.139C330.601 380.694 331.113 382.397 331.282 384.15C331.45 385.903 331.272 387.672 330.756 389.357C330.24 391.041 329.397 392.607 328.275 393.965C327.154 395.324 325.775 396.448 324.218 397.274V397.274Z" stroke="#3F3D56" stroke-miterlimit="10"/>
<path d="M342.142 419.652C342.039 422.724 340.883 425.669 338.865 427.99C336.848 430.312 334.094 431.87 331.064 432.403C328.033 432.936 324.912 432.412 322.223 430.918C319.533 429.425 317.44 427.053 316.293 424.2C315.146 421.347 315.016 418.186 315.924 415.249C316.833 412.311 318.724 409.775 321.281 408.066C323.839 406.356 326.907 405.578 329.971 405.86C333.034 406.143 335.908 407.469 338.109 409.618L333.451 419.358L340.869 413.488C341.782 415.411 342.218 417.525 342.142 419.652Z" fill="#57B894"/>
<path d="M341.346 417.97C341.243 421.042 340.086 423.987 338.069 426.308C336.052 428.63 333.297 430.188 330.267 430.721C327.237 431.254 324.115 430.73 321.426 429.236C318.737 427.743 316.643 425.371 315.497 422.518C314.35 419.665 314.22 416.504 315.128 413.567C316.036 410.629 317.928 408.093 320.485 406.384C323.043 404.674 326.11 403.896 329.174 404.178C332.238 404.461 335.111 405.788 337.313 407.936L332.654 417.676L340.073 411.807C340.985 413.729 341.422 415.843 341.346 417.97V417.97Z" stroke="#3F3D56" stroke-miterlimit="10"/>
<path d="M487.099 445.503H224.691" stroke="#3F3D56" stroke-miterlimit="10"/>
<path d="M73.1776 73.123H265.309V199.397H73.1776V73.123Z" fill="#F2F2F2"/>
<path d="M0.322388 0.322144H311.73V245.784H0.322388V0.322144Z" stroke="#3F3D56" stroke-miterlimit="10"/>
<path d="M311.408 14.4957H7.18236e-05" stroke="#3F3D56" stroke-miterlimit="10"/>
<path d="M305.283 11.2745C303.503 11.2745 302.059 9.83225 302.059 8.05319C302.059 6.27413 303.503 4.83191 305.283 4.83191C307.063 4.83191 308.507 6.27413 308.507 8.05319C308.507 9.83225 307.063 11.2745 305.283 11.2745Z" fill="#F86B75"/>
<path d="M296.257 11.2745C294.476 11.2745 293.033 9.83225 293.033 8.05319C293.033 6.27413 294.476 4.83191 296.257 4.83191C298.037 4.83191 299.48 6.27413 299.48 8.05319C299.48 9.83225 298.037 11.2745 296.257 11.2745Z" fill="#FAD375"/>
<path d="M287.23 11.2745C285.45 11.2745 284.007 9.83225 284.007 8.05319C284.007 6.27413 285.45 4.83191 287.23 4.83191C289.011 4.83191 290.454 6.27413 290.454 8.05319C290.454 9.83225 289.011 11.2745 287.23 11.2745Z" fill="#8BCC55"/>
<path d="M303.993 9.34173C302.213 9.34173 300.77 7.89951 300.77 6.12045C300.77 4.34139 302.213 2.89917 303.993 2.89917C305.774 2.89917 307.217 4.34139 307.217 6.12045C307.217 7.89951 305.774 9.34173 303.993 9.34173Z" stroke="#3F3D56" stroke-miterlimit="10"/>
<path d="M294.967 9.34173C293.187 9.34173 291.743 7.89951 291.743 6.12045C291.743 4.34139 293.187 2.89917 294.967 2.89917C296.748 2.89917 298.191 4.34139 298.191 6.12045C298.191 7.89951 296.748 9.34173 294.967 9.34173Z" stroke="#3F3D56" stroke-miterlimit="10"/>
<path d="M285.941 9.34173C284.16 9.34173 282.717 7.89951 282.717 6.12045C282.717 4.34139 284.16 2.89917 285.941 2.89917C287.721 2.89917 289.164 4.34139 289.164 6.12045C289.164 7.89951 287.721 9.34173 285.941 9.34173Z" stroke="#3F3D56" stroke-miterlimit="10"/>
<path d="M58.0264 59.2716H250.158V185.546H58.0264V59.2716Z" stroke="#3F3D56" stroke-miterlimit="10"/>
<path d="M61.2499 213.249H96.7104V222.913H61.2499V213.249Z" fill="#6C63FF"/>
<path d="M58.0263 210.672H93.4868V220.336H58.0263V210.672Z" stroke="#3F3D56" stroke-miterlimit="10"/>
<path d="M151.906 133.068L166.741 117.791C167.065 117.465 167.452 117.208 167.878 117.037C168.305 116.866 168.762 116.784 169.221 116.795H169.266C169.725 116.784 170.182 116.866 170.608 117.037C171.035 117.208 171.422 117.465 171.745 117.791L186.581 133.068C186.908 133.375 187.169 133.745 187.348 134.156C187.526 134.567 187.618 135.01 187.618 135.458C187.618 135.906 187.526 136.349 187.348 136.761C187.169 137.172 186.908 137.542 186.581 137.848C185.902 138.482 185.008 138.835 184.078 138.835C183.149 138.835 182.255 138.482 181.576 137.848L172.786 128.666V152.34C172.745 153.251 172.354 154.112 171.694 154.742C171.034 155.373 170.156 155.725 169.243 155.725C168.33 155.725 167.452 155.373 166.792 154.742C166.133 154.112 165.742 153.251 165.701 152.34V128.666L156.91 137.848C156.232 138.482 155.337 138.835 154.408 138.835C153.479 138.835 152.585 138.482 151.906 137.848C151.579 137.542 151.318 137.172 151.139 136.761C150.961 136.349 150.868 135.906 150.868 135.458C150.868 135.01 150.961 134.567 151.139 134.156C151.318 133.745 151.579 133.375 151.906 133.068Z" fill="#6C63FF"/>
</g>
<defs>
<clipPath id="clip0_601_614">
<rect width="490" height="447" fill="white" transform="matrix(-1 0 0 1 490 0)"/>
</clipPath>
</defs>
</svg>
