<svg width="495" height="400" viewBox="0 0 495 400" fill="none" xmlns="http://www.w3.org/2000/svg">
<g clip-path="url(#clip0_26_57)">
<path d="M302.057 396.949L0.000152588 244.775L123.568 0L436.571 143.075L302.057 396.949Z" fill="#F2F2F2"/>
<path opacity="0.4" d="M90.1687 311.035C79.9621 311.035 71.688 302.769 71.688 292.573C71.688 282.377 79.9621 274.111 90.1687 274.111C100.375 274.111 108.649 282.377 108.649 292.573C108.649 302.769 100.375 311.035 90.1687 311.035Z" fill="#6C63FF"/>
<path opacity="0.4" d="M124.372 314.341C117.212 314.341 111.408 308.543 111.408 301.391C111.408 294.238 117.212 288.44 124.372 288.44C131.532 288.44 137.336 294.238 137.336 301.391C137.336 308.543 131.532 314.341 124.372 314.341Z" fill="#6C63FF"/>
<path d="M392.131 296.632L442.325 267.681L471.305 317.824L421.11 346.775L392.131 296.632Z" fill="#F2F2F2"/>
<path d="M145.469 187.882C148.043 187.882 150.558 187.12 152.698 185.692C154.838 184.264 156.505 182.234 157.49 179.859C158.475 177.484 158.732 174.87 158.23 172.349C157.728 169.827 156.489 167.511 154.67 165.694C152.85 163.876 150.531 162.638 148.008 162.136C145.484 161.635 142.867 161.892 140.49 162.876C138.112 163.86 136.08 165.526 134.651 167.663C133.221 169.801 132.458 172.314 132.458 174.884C132.462 178.331 133.834 181.634 136.273 184.071C138.712 186.508 142.02 187.879 145.469 187.882ZM145.469 163.068C147.809 163.068 150.096 163.761 152.041 165.06C153.986 166.358 155.502 168.203 156.397 170.363C157.293 172.522 157.527 174.898 157.07 177.19C156.614 179.482 155.487 181.587 153.833 183.24C152.179 184.892 150.071 186.018 147.777 186.474C145.482 186.93 143.104 186.696 140.943 185.801C138.781 184.907 136.934 183.393 135.634 181.449C134.334 179.506 133.641 177.222 133.641 174.884C133.644 171.752 134.892 168.748 137.109 166.533C139.327 164.318 142.333 163.072 145.469 163.068Z" fill="#3F3D56"/>
<path d="M368.436 150.661C371.009 150.661 373.525 149.898 375.664 148.47C377.804 147.042 379.472 145.012 380.456 142.637C381.441 140.262 381.699 137.648 381.197 135.127C380.695 132.606 379.456 130.29 377.636 128.472C375.816 126.654 373.498 125.416 370.974 124.915C368.45 124.413 365.834 124.67 363.456 125.654C361.079 126.638 359.047 128.304 357.617 130.442C356.187 132.579 355.424 135.092 355.424 137.663C355.428 141.109 356.8 144.413 359.24 146.849C361.679 149.286 364.986 150.657 368.436 150.661ZM368.436 125.846C370.775 125.846 373.062 126.539 375.007 127.838C376.952 129.136 378.468 130.982 379.364 133.141C380.259 135.3 380.493 137.676 380.037 139.968C379.58 142.26 378.454 144.366 376.8 146.018C375.145 147.671 373.038 148.796 370.743 149.252C368.449 149.708 366.07 149.474 363.909 148.58C361.748 147.685 359.9 146.171 358.601 144.228C357.301 142.284 356.607 140 356.607 137.663C356.611 134.53 357.858 131.526 360.075 129.311C362.293 127.096 365.3 125.85 368.436 125.846Z" fill="#3F3D56"/>
<path d="M419.889 356.857C422.463 356.857 424.978 356.094 427.118 354.666C429.258 353.238 430.925 351.208 431.91 348.833C432.895 346.458 433.153 343.844 432.651 341.323C432.149 338.801 430.909 336.485 429.09 334.668C427.27 332.85 424.952 331.612 422.428 331.11C419.904 330.609 417.288 330.866 414.91 331.85C412.533 332.834 410.501 334.5 409.071 336.637C407.641 338.775 406.878 341.288 406.878 343.859C406.882 347.305 408.254 350.609 410.693 353.045C413.133 355.482 416.44 356.853 419.889 356.857ZM419.889 332.042C422.229 332.042 424.516 332.735 426.461 334.034C428.406 335.332 429.922 337.178 430.817 339.337C431.713 341.496 431.947 343.872 431.491 346.164C431.034 348.456 429.908 350.562 428.253 352.214C426.599 353.867 424.491 354.992 422.197 355.448C419.902 355.904 417.524 355.67 415.363 354.776C413.201 353.881 411.354 352.367 410.054 350.423C408.755 348.48 408.061 346.196 408.061 343.859C408.064 340.726 409.312 337.722 411.529 335.507C413.747 333.292 416.753 332.046 419.889 332.042Z" fill="#3F3D56"/>
<path d="M300.239 145.436C292.853 137.151 290.919 126.829 295.92 122.38C300.92 117.931 310.961 121.041 318.347 129.326C325.733 137.611 327.667 147.933 322.667 152.382C317.667 156.831 307.625 153.721 300.239 145.436Z" fill="#2F2E41"/>
<path d="M271.147 227.186C242.076 227.186 218.51 203.643 218.51 174.603C218.51 145.562 242.076 122.02 271.147 122.02C300.217 122.02 323.783 145.562 323.783 174.603C323.783 203.643 300.217 227.186 271.147 227.186Z" fill="#2F2E41"/>
<path d="M424.968 151.428L473.893 155.427C475.819 155.584 477.624 156.424 478.984 157.795C480.343 159.166 481.168 160.978 481.307 162.903L483.134 188.087C483.214 189.195 483.065 190.308 482.696 191.356C482.327 192.405 481.745 193.366 480.987 194.179C480.23 194.993 479.312 195.642 478.292 196.086C477.273 196.529 476.172 196.758 475.06 196.758H453.009V197.94H444.138V196.758H439.406V197.94H430.535V196.758H425.806C423.731 196.758 421.735 195.962 420.23 194.534C418.726 193.106 417.828 191.156 417.721 189.085L416.223 159.902C416.164 158.751 416.352 157.601 416.774 156.529C417.196 155.456 417.843 154.486 418.671 153.684C419.499 152.881 420.49 152.265 421.576 151.876C422.662 151.487 423.818 151.334 424.968 151.428Z" fill="#2F2E41"/>
<path d="M393.867 231.026L463.063 198.531L475.483 218.028C475.483 218.028 439.502 240.974 437.632 242.842C434.971 245.501 406.287 264.112 395.05 261.158C383.813 258.203 389.135 233.98 393.867 231.026Z" fill="#9F616A"/>
<path d="M346.553 379.912L355.424 400H263.588L270.259 378.731L346.553 379.912Z" fill="#2F2E41"/>
<path d="M290.368 216.846C290.368 216.846 286.819 236.343 290.368 238.706C293.916 241.07 266.711 270.02 266.711 270.02L255.474 259.976L251.925 236.934C251.925 236.934 262.571 222.163 257.84 209.165C253.108 196.167 290.368 216.846 290.368 216.846Z" fill="#9F616A"/>
<path d="M279.722 222.754C258.818 222.754 241.871 205.825 241.871 184.942C241.871 164.059 258.818 147.13 279.722 147.13C300.627 147.13 317.573 164.059 317.573 184.942C317.573 205.825 300.627 222.754 279.722 222.754Z" fill="#9F616A"/>
<path d="M269.668 256.431C269.668 256.431 284.454 233.98 292.734 232.207C301.013 230.435 308.702 231.617 313.433 232.207C318.165 232.798 334.133 226.89 343.596 231.026C353.059 235.161 343.596 283.609 343.596 283.609C343.596 283.609 354.241 345.645 349.51 361.597C344.779 377.549 348.327 380.503 350.693 382.275C353.059 384.048 296.873 400 296.873 400H243.645C243.645 400 243.645 382.866 238.323 378.73C233 374.595 233.591 287.154 233.591 287.154L215.849 252.886C215.849 252.886 218.806 239.888 231.226 239.297C243.645 238.706 254.732 232.193 254.732 232.193L263.162 256.431H269.668Z" fill="#F02E4E"/>
<path d="M338.273 233.98L343.596 231.026C343.596 231.026 353.65 231.617 355.424 231.026C357.199 230.435 379.673 223.345 388.544 227.481C397.415 231.617 403.33 226.299 403.33 226.299C403.33 226.299 374.35 251.114 409.835 258.794C409.835 258.794 409.244 261.749 400.372 263.521C391.501 265.293 389.727 267.066 386.178 270.02C382.63 272.974 375.533 275.928 370.801 277.11C366.07 278.291 350.693 288.335 348.327 285.972C345.962 283.609 341.822 275.337 341.822 275.337L338.273 233.98Z" fill="#F02E4E"/>
<path d="M227.086 246.387L215.849 252.886C215.849 252.886 201.063 296.607 203.429 307.242C205.794 317.876 208.16 316.104 204.612 323.194C201.063 330.283 197.514 330.874 199.88 337.373C202.246 343.872 201.063 359.824 204.612 366.323C208.16 372.822 225.311 393.501 240.097 358.643C254.882 323.784 227.086 246.387 227.086 246.387Z" fill="#F02E4E"/>
<path d="M205.794 336.782C205.794 336.782 214.074 320.239 215.849 319.058C217.623 317.876 225.903 277.11 225.903 277.11C225.903 277.11 212.892 255.84 224.72 246.387C224.72 246.387 202.837 215.664 209.934 216.255C217.031 216.846 231.226 239.297 231.226 239.297C231.226 239.297 234.478 238.411 233.296 233.684C232.113 228.958 227.677 212.12 231.226 211.529C234.774 210.938 241.871 236.343 241.871 236.343C241.871 236.343 256.361 262.635 251.925 271.792C249.345 276.932 246.379 281.869 243.054 286.563L233 359.824C233 359.824 213.483 383.457 205.794 336.782Z" fill="#9F616A"/>
<path d="M428.761 162.491C425.168 162.491 422.255 161.168 422.255 159.537C422.255 157.905 425.168 156.583 428.761 156.583C432.354 156.583 435.266 157.905 435.266 159.537C435.266 161.168 432.354 162.491 428.761 162.491Z" fill="#6C63FF"/>
<path d="M468.386 218.028H476.666C476.666 218.028 495 212.12 495 198.531C495 184.942 489.677 157.174 473.117 157.764C456.558 158.355 471.935 194.986 471.935 194.986L461.91 199.073L461.88 211.529L468.386 218.028Z" fill="#9F616A"/>
<path d="M285.932 176.966C267.314 176.966 252.221 169.295 252.221 159.832C252.221 150.37 267.314 142.698 285.932 142.698C304.55 142.698 319.643 150.37 319.643 159.832C319.643 169.295 304.55 176.966 285.932 176.966Z" fill="#2F2E41"/>
<path d="M240.393 187.601C238.759 187.601 237.436 184.691 237.436 181.102C237.436 177.512 238.759 174.603 240.393 174.603C242.026 174.603 243.35 177.512 243.35 181.102C243.35 184.691 242.026 187.601 240.393 187.601Z" fill="#9F616A"/>
<path d="M214.162 164.904C208.138 161.982 207.188 151.523 212.039 141.543C216.891 131.564 225.706 125.842 231.73 128.764C237.753 131.686 238.703 142.145 233.852 152.125C229.001 162.105 220.185 167.826 214.162 164.904Z" fill="#2F2E41"/>
</g>
<defs>
<clipPath id="clip0_26_57">
<rect width="495" height="400" fill="white" transform="matrix(-1 0 0 1 495 0)"/>
</clipPath>
</defs>
</svg>
